<svg width="32" height="32" xmlns="http://www.w3.org/2000/svg"><g id="Symbols" stroke="none" stroke-width="1" fill="none" fill-rule="evenodd"><g id="instagram" fill="#FFF" fill-rule="nonzero"><g id="Shape"><path d="M20.916 16a4.939 4.939 0 01-9.877 0c0-.394.051-.773.138-1.14h-.897v6.838h11.396V14.86h-.897c.086.367.137.746.137 1.14z"/><path d="M15.978 18.659A2.662 2.662 0 0018.637 16a2.662 2.662 0 00-2.659-2.659A2.662 2.662 0 0013.319 16a2.662 2.662 0 002.659 2.659zm2.659-8.357h3.039v3.039h-3.039v-3.039z"/><path d="M16 0C7.164 0 0 7.164 0 16c0 8.837 7.164 16 16 16 8.837 0 16-7.163 16-16 0-8.836-7.163-16-16-16zm7.955 21.698a2.285 2.285 0 01-2.279 2.279H10.279A2.285 2.285 0 018 21.698V10.302a2.286 2.286 0 012.279-2.279h11.396a2.286 2.286 0 012.279 2.279v11.396h.001z"/></g></g></g></svg>